<?xml version="1.0" encoding="utf-8"?>
<!-- Generator: Adobe Illustrator 24.3.0, SVG Export Plug-In . SVG Version: 6.00 Build 0)  -->
<svg version="1.1" id="レイヤー_1" xmlns="http://www.w3.org/2000/svg" xmlns:xlink="http://www.w3.org/1999/xlink" x="0px"
	 y="0px" viewBox="0 0 24 24" style="enable-background:new 0 0 24 24;" width="30px" height="30px" xml:space="preserve">
<style type="text/css">
	.st0{fill:#FFFFFF;}
</style>
<path class="st0" d="M11,14.6V3c0-0.6,0.4-1,1-1s1,0.4,1,1v11.6l3.3-3.3c0.4-0.4,1.1-0.3,1.4,0.1c0.3,0.4,0.3,0.9,0,1.3l-5,5
	c-0.4,0.4-1,0.4-1.4,0l-5-5c-0.4-0.4-0.3-1,0.1-1.4c0.4-0.3,0.9-0.3,1.3,0C7.7,11.3,11,14.6,11,14.6z M3,17c0-0.6,0.4-1,1-1
	s1,0.4,1,1v3h14v-3c0-0.6,0.4-1,1-1s1,0.4,1,1v3c0,1.1-0.9,2-2,2H5c-1.1,0-2-0.9-2-2V17z"/>
</svg>
